<?xml version="1.0" standalone="no"?>
<!DOCTYPE svg PUBLIC "-//W3C//DTD SVG 20010904//EN"
 "http://www.w3.org/TR/2001/REC-SVG-20010904/DTD/svg10.dtd">
<svg version="1.0" xmlns="http://www.w3.org/2000/svg"
 width="408.000000pt" height="612.000000pt" viewBox="0 0 408.000000 612.000000"
 preserveAspectRatio="xMidYMid meet">

<g transform="translate(0.000000,612.000000) scale(0.100000,-0.100000)"
fill="#000000" stroke="none">
<path d="M1815 4614 c-565 -87 -1043 -490 -1214 -1024 -49 -155 -64 -256 -64
-440 0 -184 15 -285 64 -440 173 -540 682 -954 1254 -1021 109 -13 374 -6 460
11 320 65 602 216 816 436 246 255 381 546 411 887 69 776 -494 1474 -1283
1591 -127 19 -320 19 -444 0z m480 -78 c284 -51 539 -187 753 -399 145 -143
257 -315 325 -502 24 -66 34 -101 68 -250 21 -89 18 -358 -5 -460 -55 -245
-158 -464 -291 -620 l-26 -30 4 36 c2 23 20 60 50 102 26 36 47 68 47 71 0 4
11 25 25 47 45 70 95 196 127 317 30 111 31 126 32 312 0 181 -2 202 -27 298
-37 139 -68 219 -129 332 -186 345 -534 601 -933 689 -142 31 -391 31 -545 0
-94 -19 -241 -69 -334 -115 -143 -71 -252 -150 -371 -269 -217 -216 -343 -463
-385 -752 -33 -231 9 -486 119 -715 187 -393 585 -691 1021 -763 141 -24 417
-16 540 14 150 38 320 109 415 174 28 19 52 27 84 27 l45 0 -68 -45 c-158
-103 -372 -187 -561 -220 -116 -19 -333 -19 -455 0 -300 49 -561 184 -780 404
-218 219 -326 419 -385 718 -30 148 -34 334 -10 428 9 33 18 80 21 105 10 80
59 215 126 345 86 166 271 373 433 485 203 141 405 215 690 254 58 8 301 -3
380 -18z m-180 -185 c51 -23 101 -80 114 -128 5 -21 12 -89 16 -152 3 -63 11
-124 17 -135 25 -48 69 -93 105 -108 21 -9 62 -26 92 -38 30 -12 78 -39 106
-60 37 -28 65 -39 105 -45 137 -18 215 -94 240 -234 9 -53 19 -73 52 -110 53
-61 74 -103 94 -192 16 -77 46 -167 85 -256 22 -50 22 -56 9 -120 -14 -71 -50
-160 -83 -205 -31 -42 -41 -21 -13 27 50 84 74 268 41 311 -14 19 -14 19 -15
-2 0 -11 -14 -33 -31 -50 -17 -16 -38 -45 -47 -64 l-16 -35 -4 45 c-2 25 2 75
9 113 7 37 9 70 6 73 -3 4 -20 1 -38 -5 -30 -10 -31 -10 -25 12 3 12 6 38 6
57 l1 35 16 -23 c15 -21 81 -57 90 -49 5 6 -35 154 -49 180 -7 14 -34 47 -59
76 -37 40 -48 47 -53 34 -13 -33 -16 -4 -5 39 11 40 10 54 -10 116 -20 64 -28
76 -79 117 -31 24 -60 45 -63 45 -3 0 0 -23 7 -52 19 -72 17 -89 -5 -52 -21
35 -60 67 -134 109 -41 24 -56 27 -98 22 -54 -7 -57 3 -9 23 17 7 29 18 27 24
-3 10 -162 95 -179 96 -5 0 -8 -12 -8 -27 0 -22 -11 -10 -51 62 -27 49 -53 92
-57 95 -4 3 -8 30 -9 60 -3 197 -18 256 -77 307 -46 41 -97 57 -166 50 -79 -7
-199 -69 -169 -88 8 -4 1 -13 -20 -23 -38 -20 -40 -30 -3 -22 l27 6 -30 -16
c-16 -9 -43 -28 -58 -40 -16 -13 -40 -24 -55 -24 l-25 0 21 23 c12 13 22 26
22 28 0 11 96 107 130 130 84 58 226 76 305 40z m-350 -326 c6 -67 9 -77 33
-89 24 -12 26 -18 23 -71 -2 -50 0 -57 18 -62 11 -3 23 -15 27 -27 3 -11 12
-28 19 -36 7 -8 15 -26 17 -40 2 -21 9 -26 41 -28 26 -2 50 4 75 18 l37 22
-24 -25 c-17 -19 -22 -34 -19 -56 4 -26 2 -29 -14 -20 -10 5 -18 14 -18 19 0
18 -61 10 -100 -12 -22 -13 -40 -26 -40 -30 0 -5 17 -8 38 -9 20 0 46 -4 57
-8 18 -7 15 -10 -19 -25 -21 -9 -41 -16 -44 -16 -20 0 -83 -58 -98 -88 -55
-116 -66 -182 -39 -246 8 -20 11 -36 6 -36 -18 0 -61 53 -77 96 -35 91 13 195
136 293 l25 20 -44 1 c-55 0 -118 -29 -158 -74 -51 -55 -57 -73 -42 -120 8
-23 14 -69 14 -103 0 -50 3 -63 16 -63 20 0 39 -20 39 -42 0 -26 -28 -78 -57
-108 -16 -16 -23 -32 -20 -47 4 -22 3 -22 -32 -7 -66 29 -65 28 -56 13 5 -8
19 -27 31 -44 12 -16 25 -48 29 -70 l7 -40 -38 37 c-22 20 -59 46 -84 57 -52
23 -113 71 -90 71 8 0 37 -7 64 -15 27 -8 51 -13 54 -11 10 11 -13 26 -71 45
-54 18 -66 27 -80 57 -9 19 -17 54 -17 77 0 39 2 43 25 43 27 0 28 -2 40 -78
8 -52 49 -98 87 -98 91 0 172 165 138 285 -36 130 -146 124 -206 -12 -23 -51
-24 -52 -54 -42 -16 6 -30 16 -30 22 0 28 50 115 79 140 20 16 27 27 18 27
-28 0 -76 -50 -103 -108 -15 -31 -28 -58 -29 -60 -1 -1 -16 3 -34 9 -26 9 -31
15 -25 33 13 46 50 109 73 127 48 38 76 36 224 -16 l38 -14 24 38 c37 60 92
99 154 111 57 12 70 17 134 58 42 27 48 59 17 87 -11 10 -20 23 -20 29 0 6 -9
17 -20 24 -16 10 -20 23 -20 66 0 46 -4 56 -25 70 -24 16 -27 26 -40 129 -5
37 -3 47 8 47 11 0 16 -20 22 -75z m402 -207 c-2 -13 -4 -5 -4 17 -1 22 1 32
4 23 2 -10 2 -28 0 -40z m253 -243 c24 -25 41 -45 37 -45 -4 0 -31 12 -59 26
-30 15 -76 28 -110 32 -63 5 -66 18 -8 25 89 10 94 9 140 -38z m-1465 15 c14
-6 15 -9 5 -9 -31 -2 -87 -61 -111 -115 -20 -47 -28 -56 -50 -56 -22 0 -27 -5
-32 -33 -8 -49 2 -85 21 -82 21 3 32 -12 32 -44 0 -14 10 -35 22 -48 21 -22
21 -23 1 -23 -38 0 -76 61 -88 144 -6 35 -2 63 15 116 38 118 115 180 185 150z
m107 -30 c21 -6 43 -21 49 -33 12 -21 11 -21 -8 -4 -11 9 -34 17 -52 17 -39 0
-87 -46 -116 -111 -15 -32 -23 -39 -46 -39 -38 0 -42 11 -23 62 39 99 102 134
196 108z m1008 -80 c-17 -32 -40 -126 -40 -164 0 -40 27 -125 47 -146 7 -8 28
-21 46 -28 31 -12 30 -12 -21 -8 -42 2 -60 9 -80 30 -25 25 -27 32 -25 106 3
97 14 142 50 197 28 43 44 52 23 13z m-891 -50 c30 -15 26 -32 -3 -19 -20 10
-30 8 -55 -10 -17 -12 -31 -18 -31 -13 0 5 10 16 23 25 12 8 19 18 15 22 -9 9
-68 -26 -68 -41 0 -7 -8 -10 -19 -7 -13 3 -23 -2 -30 -16 -13 -24 -31 -28 -31
-7 0 12 74 79 90 82 44 6 60 18 55 38 -4 13 1 10 14 -11 11 -17 29 -37 40 -43z
m1352 -173 c-26 -54 -82 -95 -153 -114 -69 -17 -106 -16 -47 3 32 9 72 37 130
88 46 41 85 73 87 71 2 -2 -5 -24 -17 -48z m-1649 28 c12 2 22 -11 34 -48 9
-28 28 -61 41 -73 l24 -22 -41 10 c-49 13 -80 52 -87 111 -2 23 -1 37 4 31 4
-6 16 -10 25 -9z m1903 -20 c38 -15 55 -46 55 -98 l0 -32 -69 65 c-44 41 -65
68 -57 72 16 11 33 10 71 -7z m-1761 -21 c3 -8 2 -12 -4 -9 -6 3 -10 10 -10
16 0 14 7 11 14 -7z m230 -77 c4 -23 12 -47 18 -54 17 -21 1 -28 -29 -12 -31
16 -53 64 -53 114 l0 36 29 -22 c20 -15 31 -33 35 -62z m-152 -46 c44 -97 54
-120 83 -188 33 -74 67 -113 39 -44 -29 73 -11 53 50 -54 45 -78 70 -112 104
-136 33 -24 41 -34 30 -40 -10 -7 -7 -15 15 -34 41 -36 70 -32 125 18 26 23
59 49 74 56 25 13 55 62 72 119 13 41 29 25 23 -24 -6 -55 -27 -86 -93 -137
-84 -66 -106 -77 -155 -77 -44 0 -48 3 -152 103 -114 110 -141 153 -185 299
-12 36 -32 88 -45 115 -14 26 -32 66 -41 87 l-16 39 21 -19 c12 -10 35 -48 51
-83z m838 1 c0 -5 -11 -14 -25 -20 -13 -6 -41 -34 -60 -61 -20 -27 -41 -52
-48 -54 -9 -3 -8 -12 3 -33 13 -24 24 -30 65 -35 28 -3 45 -7 39 -7 -6 -1 -20
-20 -33 -42 -12 -22 -30 -44 -39 -49 -15 -9 -16 -12 -2 -38 9 -16 29 -32 45
-37 l30 -9 -28 -30 c-27 -29 -28 -29 -41 -11 -18 23 -32 73 -42 139 -4 28 -15
61 -26 74 -14 18 -18 39 -17 80 1 31 -2 68 -6 84 -7 26 -6 27 31 27 22 0 57 7
79 15 46 16 75 19 75 7z m861 -185 l56 -28 -14 -52 c-7 -28 -12 -78 -11 -111
1 -69 -8 -109 -25 -103 -17 6 -13 153 6 204 l15 41 -31 13 c-18 7 -51 31 -74
52 l-42 38 -19 -43 c-11 -24 -40 -69 -66 -102 -42 -53 -55 -83 -70 -157 -4
-18 -14 -28 -31 -31 -31 -6 -32 0 0 99 16 53 39 98 68 135 57 73 78 119 80
171 l2 42 50 -69 c39 -55 62 -77 106 -99z m-351 144 c0 -11 -23 -38 -52 -63
-29 -23 -48 -36 -43 -28 28 48 80 110 92 110 2 0 3 -9 3 -19z m-438 -41 c-6
-74 3 -97 38 -105 35 -8 39 -21 9 -30 -11 -4 -29 -21 -39 -38 l-19 -31 -1 59
c0 33 -1 83 -2 110 -2 43 5 85 14 85 2 0 1 -23 0 -50z m358 -194 c0 -3 -15
-14 -32 -26 l-33 -22 30 26 c31 27 35 29 35 22z m-285 -105 c3 -5 -4 -13 -16
-16 -11 -4 -29 -21 -40 -38 l-19 -32 0 32 c0 49 9 63 40 63 16 0 31 -4 35 -9z
m-285 -90 c0 -25 5 -75 10 -110 6 -35 9 -66 6 -68 -2 -3 -16 3 -30 12 -23 15
-26 24 -26 70 0 28 3 80 7 115 5 56 8 61 20 45 7 -11 13 -39 13 -64z m1131
-87 c84 -42 139 -183 110 -284 -4 -15 -7 6 -8 55 -1 96 -10 121 -64 180 -33
35 -48 45 -74 45 -56 0 -104 -78 -106 -174 -1 -28 -3 -43 -6 -33 -3 11 -14 17
-34 17 -28 0 -29 1 -29 50 0 54 13 93 44 128 16 18 17 22 4 22 -34 0 -69 -64
-77 -140 -6 -54 -6 -55 -39 -54 -32 1 -33 0 -30 -35 3 -32 6 -36 37 -41 28 -4
36 -11 50 -47 9 -23 29 -56 45 -72 l30 -31 -35 0 c-78 0 -130 84 -137 223 -4
77 -2 95 18 137 32 69 59 80 179 73 53 -3 108 -12 122 -19z m-452 -14 c-67
-20 -92 -53 -107 -140 -7 -40 -11 -45 -36 -48 -16 -2 -33 1 -38 6 -16 16 10
118 39 152 29 35 17 41 -14 8 -29 -32 -41 -59 -54 -117 -10 -47 -13 -51 -39
-51 -21 0 -30 -6 -34 -22 -3 -13 -3 6 0 41 6 78 28 135 62 161 21 17 39 20
136 19 70 0 101 -4 85 -9z m108 -95 c2 -15 -11 -27 -57 -49 -41 -20 -62 -37
-69 -55 l-9 -26 -1 25 c-1 34 86 131 114 127 12 -1 21 -10 22 -22z m211 -176
c39 -72 60 -95 102 -118 l45 -23 -64 6 c-74 7 -99 24 -131 91 -27 56 -26 75 5
75 19 0 31 -9 43 -31z m-574 0 c35 5 45 -2 60 -44 10 -24 30 -58 45 -74 22
-24 25 -31 13 -36 -32 -12 -86 28 -114 85 -25 51 -41 115 -19 82 4 -8 11 -13
15 -13z m170 -46 c27 -53 60 -88 91 -96 11 -3 -6 -5 -38 -6 -49 -1 -62 3 -83
24 -26 26 -54 83 -54 110 0 10 10 15 30 15 25 0 33 -7 54 -47z m636 2 c0 -8
-14 -29 -30 -47 l-31 -33 26 39 c14 21 25 43 25 47 0 5 2 9 5 9 3 0 5 -7 5
-15z"/>
</g>
</svg>
